# xmcd CD database file
#
# Track frame offsets:
#	150
#	20207
#	42657
#
# Disc length: 835 seconds
#
# Revision: 1
# Processed by: cddbd v1.5PL3 Copyright (c) Steve Scherf et al.
# Submitted via: CDex 1.40Release
#
DISCID=26034103
DTITLE=伊豆田洋之 - 冬の南風
DYEAR=1993
DGENRE=Pop
TTITLE0=冬の南風
TTITLE1=雪がとけるころ
TTITLE2=冬の南風（オリジナルカラオケ）
EXTD=YEAR: 1993 ID3G: 13
EXTT0=
EXTT1=
EXTT2=
PLAYORDER=
